<mxfile host="app.diagrams.net" modified="2022-05-13T11:14:56.141Z" agent="5.0 (Macintosh; Intel Mac OS X 10_15_7) AppleWebKit/537.36 (KHTML, like Gecko) Chrome/100.0.4896.88 Safari/537.36" etag="sR2QzElwTW4JU-oDUK-S" version="18.0.3" type="github">
  <diagram id="5nNoaEYcehjy3NwErMhv" name="Page-1">
    <mxGraphModel dx="1018" dy="638" grid="1" gridSize="10" guides="1" tooltips="1" connect="1" arrows="1" fold="1" page="1" pageScale="1" pageWidth="850" pageHeight="1100" math="0" shadow="0">
      <root>
        <mxCell id="0" />
        <mxCell id="1" parent="0" />
        <mxCell id="PEK6x79t7NtCZTKQHf8a-29" value="" style="rounded=0;whiteSpace=wrap;html=1;fillColor=#d5e8d4;strokeColor=#82b366;dashed=1;" vertex="1" parent="1">
          <mxGeometry x="560" y="100" width="280" height="270" as="geometry" />
        </mxCell>
        <mxCell id="PEK6x79t7NtCZTKQHf8a-1" value="prom" style="rounded=0;whiteSpace=wrap;html=1;align=center;fontStyle=1;fillColor=#ffe6cc;strokeColor=#d79b00;" vertex="1" parent="1">
          <mxGeometry x="16" y="240" width="275" height="60" as="geometry" />
        </mxCell>
        <mxCell id="PEK6x79t7NtCZTKQHf8a-21" style="edgeStyle=orthogonalEdgeStyle;rounded=0;orthogonalLoop=1;jettySize=auto;html=1;" edge="1" parent="1" source="PEK6x79t7NtCZTKQHf8a-2" target="PEK6x79t7NtCZTKQHf8a-20">
          <mxGeometry relative="1" as="geometry" />
        </mxCell>
        <mxCell id="PEK6x79t7NtCZTKQHf8a-2" value="Prom-0" style="rounded=0;whiteSpace=wrap;html=1;fillColor=#ffe6cc;strokeColor=#d79b00;" vertex="1" parent="1">
          <mxGeometry x="16" y="370" width="120" height="60" as="geometry" />
        </mxCell>
        <mxCell id="PEK6x79t7NtCZTKQHf8a-22" style="edgeStyle=orthogonalEdgeStyle;rounded=0;orthogonalLoop=1;jettySize=auto;html=1;entryX=0;entryY=0.5;entryDx=0;entryDy=0;" edge="1" parent="1" source="PEK6x79t7NtCZTKQHf8a-3" target="PEK6x79t7NtCZTKQHf8a-20">
          <mxGeometry relative="1" as="geometry" />
        </mxCell>
        <mxCell id="PEK6x79t7NtCZTKQHf8a-3" value="Prom-1" style="rounded=0;whiteSpace=wrap;html=1;fillColor=#ffe6cc;strokeColor=#d79b00;" vertex="1" parent="1">
          <mxGeometry x="16" y="460" width="120" height="60" as="geometry" />
        </mxCell>
        <mxCell id="PEK6x79t7NtCZTKQHf8a-35" style="edgeStyle=orthogonalEdgeStyle;rounded=0;orthogonalLoop=1;jettySize=auto;html=1;entryX=-0.014;entryY=0.628;entryDx=0;entryDy=0;entryPerimeter=0;" edge="1" parent="1" source="PEK6x79t7NtCZTKQHf8a-5" target="PEK6x79t7NtCZTKQHf8a-29">
          <mxGeometry relative="1" as="geometry" />
        </mxCell>
        <mxCell id="PEK6x79t7NtCZTKQHf8a-5" value="Alertmanager" style="rounded=0;whiteSpace=wrap;html=1;" vertex="1" parent="1">
          <mxGeometry x="366" y="240" width="150" height="60" as="geometry" />
        </mxCell>
        <mxCell id="PEK6x79t7NtCZTKQHf8a-6" value="Webhook" style="rounded=0;whiteSpace=wrap;html=1;" vertex="1" parent="1">
          <mxGeometry x="570" y="260" width="120" height="60" as="geometry" />
        </mxCell>
        <mxCell id="PEK6x79t7NtCZTKQHf8a-14" style="edgeStyle=orthogonalEdgeStyle;rounded=0;orthogonalLoop=1;jettySize=auto;html=1;exitX=0.5;exitY=1;exitDx=0;exitDy=0;exitPerimeter=0;entryX=0.5;entryY=0;entryDx=0;entryDy=0;" edge="1" parent="1" source="PEK6x79t7NtCZTKQHf8a-10" target="PEK6x79t7NtCZTKQHf8a-6">
          <mxGeometry relative="1" as="geometry" />
        </mxCell>
        <mxCell id="PEK6x79t7NtCZTKQHf8a-10" value="告警渠道" style="shape=cylinder3;whiteSpace=wrap;html=1;boundedLbl=1;backgroundOutline=1;size=15;" vertex="1" parent="1">
          <mxGeometry x="580" y="110" width="60" height="80" as="geometry" />
        </mxCell>
        <mxCell id="PEK6x79t7NtCZTKQHf8a-12" style="edgeStyle=orthogonalEdgeStyle;rounded=0;orthogonalLoop=1;jettySize=auto;html=1;exitX=1;exitY=0.5;exitDx=0;exitDy=0;entryX=0;entryY=0.5;entryDx=0;entryDy=0;" edge="1" parent="1" source="PEK6x79t7NtCZTKQHf8a-11" target="PEK6x79t7NtCZTKQHf8a-5">
          <mxGeometry relative="1" as="geometry" />
        </mxCell>
        <mxCell id="PEK6x79t7NtCZTKQHf8a-11" value="告警规则" style="rounded=0;whiteSpace=wrap;html=1;" vertex="1" parent="1">
          <mxGeometry x="221" y="250" width="60" height="40" as="geometry" />
        </mxCell>
        <mxCell id="PEK6x79t7NtCZTKQHf8a-17" value="popo-单人" style="text;html=1;align=center;verticalAlign=middle;resizable=0;points=[];autosize=1;strokeColor=none;fillColor=none;" vertex="1" parent="1">
          <mxGeometry x="700" y="265" width="70" height="20" as="geometry" />
        </mxCell>
        <mxCell id="PEK6x79t7NtCZTKQHf8a-18" value="email" style="text;html=1;align=center;verticalAlign=middle;resizable=0;points=[];autosize=1;strokeColor=none;fillColor=none;" vertex="1" parent="1">
          <mxGeometry x="700" y="290" width="40" height="20" as="geometry" />
        </mxCell>
        <mxCell id="PEK6x79t7NtCZTKQHf8a-19" value="popo-群" style="text;html=1;align=center;verticalAlign=middle;resizable=0;points=[];autosize=1;strokeColor=none;fillColor=none;" vertex="1" parent="1">
          <mxGeometry x="700" y="245" width="60" height="20" as="geometry" />
        </mxCell>
        <mxCell id="PEK6x79t7NtCZTKQHf8a-25" style="edgeStyle=orthogonalEdgeStyle;rounded=0;orthogonalLoop=1;jettySize=auto;html=1;" edge="1" parent="1" source="PEK6x79t7NtCZTKQHf8a-20" target="PEK6x79t7NtCZTKQHf8a-24">
          <mxGeometry relative="1" as="geometry" />
        </mxCell>
        <mxCell id="PEK6x79t7NtCZTKQHf8a-26" value="alert read from db" style="edgeLabel;html=1;align=center;verticalAlign=middle;resizable=0;points=[];" vertex="1" connectable="0" parent="PEK6x79t7NtCZTKQHf8a-25">
          <mxGeometry x="0.163" y="3" relative="1" as="geometry">
            <mxPoint as="offset" />
          </mxGeometry>
        </mxCell>
        <mxCell id="PEK6x79t7NtCZTKQHf8a-20" value="VictoriaMetrics DB" style="rounded=0;whiteSpace=wrap;html=1;fillColor=#dae8fc;strokeColor=#6c8ebf;" vertex="1" parent="1">
          <mxGeometry x="191" y="365" width="120" height="150" as="geometry" />
        </mxCell>
        <mxCell id="PEK6x79t7NtCZTKQHf8a-34" style="edgeStyle=orthogonalEdgeStyle;rounded=0;orthogonalLoop=1;jettySize=auto;html=1;exitX=0.5;exitY=0;exitDx=0;exitDy=0;entryX=0.357;entryY=1.013;entryDx=0;entryDy=0;entryPerimeter=0;" edge="1" parent="1" source="PEK6x79t7NtCZTKQHf8a-23" target="PEK6x79t7NtCZTKQHf8a-29">
          <mxGeometry relative="1" as="geometry" />
        </mxCell>
        <mxCell id="PEK6x79t7NtCZTKQHf8a-23" value="vm Alertmanager" style="rounded=0;whiteSpace=wrap;html=1;" vertex="1" parent="1">
          <mxGeometry x="600" y="400" width="120" height="60" as="geometry" />
        </mxCell>
        <mxCell id="PEK6x79t7NtCZTKQHf8a-33" style="edgeStyle=orthogonalEdgeStyle;rounded=0;orthogonalLoop=1;jettySize=auto;html=1;entryX=0;entryY=0.75;entryDx=0;entryDy=0;" edge="1" parent="1" source="PEK6x79t7NtCZTKQHf8a-24" target="PEK6x79t7NtCZTKQHf8a-23">
          <mxGeometry relative="1" as="geometry" />
        </mxCell>
        <mxCell id="PEK6x79t7NtCZTKQHf8a-24" value="vm alert" style="rounded=0;whiteSpace=wrap;html=1;" vertex="1" parent="1">
          <mxGeometry x="441" y="415" width="120" height="60" as="geometry" />
        </mxCell>
        <mxCell id="PEK6x79t7NtCZTKQHf8a-36" value="单点" style="rounded=1;whiteSpace=wrap;html=1;dashed=1;fillColor=#f8cecc;strokeColor=#b85450;" vertex="1" parent="1">
          <mxGeometry x="16" y="200" width="70" height="30" as="geometry" />
        </mxCell>
        <mxCell id="PEK6x79t7NtCZTKQHf8a-37" value="HA" style="rounded=1;whiteSpace=wrap;html=1;dashed=1;fillColor=#f8cecc;strokeColor=#b85450;" vertex="1" parent="1">
          <mxGeometry x="16" y="330" width="70" height="30" as="geometry" />
        </mxCell>
      </root>
    </mxGraphModel>
  </diagram>
</mxfile>
